<svg width="8" height="12" viewBox="0 0 8 12" fill="none" xmlns="http://www.w3.org/2000/svg">
<path fill-rule="evenodd" clip-rule="evenodd" d="M7.24827 11.6484C7.47323 11.4234 7.59961 11.1182 7.59961 10.8C7.59961 10.4818 7.47323 10.1767 7.24827 9.95162L3.29667 6.00002L7.24827 2.04842C7.46686 1.8221 7.58781 1.51898 7.58507 1.20434C7.58234 0.889707 7.45614 0.588732 7.23365 0.366243C7.01116 0.143753 6.71018 0.01755 6.39555 0.0148159C6.08091 0.0120818 5.77779 0.133036 5.55147 0.351625L0.751466 5.15162C0.526501 5.37666 0.400123 5.68183 0.400123 6.00002C0.400123 6.31822 0.526501 6.62339 0.751466 6.84842L5.55147 11.6484C5.7765 11.8734 6.08167 11.9998 6.39987 11.9998C6.71806 11.9998 7.02323 11.8734 7.24827 11.6484Z" fill="#333333"/>
</svg>
