<svg width="8" height="12" viewBox="0 0 8 12" fill="none" xmlns="http://www.w3.org/2000/svg">
<path fill-rule="evenodd" clip-rule="evenodd" d="M0.751735 11.6484C0.526769 11.4234 0.400391 11.1182 0.400391 10.8C0.400391 10.4818 0.526769 10.1767 0.751735 9.95162L4.70333 6.00002L0.751735 2.04842C0.533145 1.8221 0.412191 1.51898 0.414925 1.20434C0.417659 0.889707 0.543862 0.588732 0.766352 0.366243C0.988842 0.143753 1.28982 0.01755 1.60445 0.0148159C1.91909 0.0120818 2.22221 0.133036 2.44853 0.351625L7.24853 5.15162C7.4735 5.37666 7.59988 5.68183 7.59988 6.00002C7.59988 6.31822 7.4735 6.62339 7.24853 6.84842L2.44853 11.6484C2.2235 11.8734 1.91833 11.9998 1.60013 11.9998C1.28194 11.9998 0.976768 11.8734 0.751735 11.6484Z" fill="#F2C94C"/>
</svg>
